classDiagram

    direction LR

    namespace JavaFX {

        class Paint {
            <<abstract>>
        }

        class Shape {
            <<abstract>>
        }

        class Line {
            +startX: double
            +startY: double
            +endX: double
            +endY: double
        }

        class Polyline {
            +points: double[]
        }

        class Rectangle {
            +x: double
            +y: double
            +width: double
            +height: double
            +arcWidth: double
            +arcHeight: double
        }

        class Polygon {
            +points: double[]
        }

        class Circle {
            +centerX: double
            +centerY: double
            +radius: double
        }

        class Ellipse {
            +centerX: double
            +centerY: double
            +radiusX: double
            +radiusY: double
        }
        
        class Text {
            +x: double
            +y: double
            +text: String
            +textOrigin: VPos
            +textAlignment: TextAlignment
            +wrappingWidth: double
            +lineSpacing: double
        }

        class Font {
        }

    }

    Paint "2"<--o Shape: stroke / fill

    Shape <|-- Line
    Shape <|-- Polyline
    
    Shape <|-- Rectangle
    Shape <|-- Polygon
    
    Shape <|-- Circle
    Shape <|-- Ellipse

    Shape <|-- Text

    Text ..>"1" Font

    style Shape fill:white
    style Paint fill:white
    style Font fill:white